<svg xmlns="http://www.w3.org/2000/svg" viewBox="0 0 64 64"  xmlns:v="https://vecta.io/nano"><g fill-rule="evenodd"><path d="M56 14v4H25.24a2.006 2.006 0 0 1-1.8-1.1L21.02 12H54a2.006 2.006 0 0 1 2 2z" fill="#f0c45f"/><path d="M58 20v32a1.981 1.981 0 0 1-2 2H8a2.006 2.006 0 0 1-2-2V12a1.98 1.98 0 0 1 2-2h10.76a2.006 2.006 0 0 1 1.8 1.1l.46.9 2.42 4.9a2.006 2.006 0 0 0 1.8 1.1H56a1.98 1.98 0 0 1 2 2z" fill="#fae6b8"/></g><path d="M58.12 17.88a2.865 2.865 0 0 0-1.12-.7V14a2.996 2.996 0 0 0-3-3H21.62l-.18-.34A2.977 2.977 0 0 0 18.76 9H8a3.005 3.005 0 0 0-3 3v40a2.996 2.996 0 0 0 3 3h48a3.005 3.005 0 0 0 3-3V20a2.997 2.997 0 0 0-.88-2.12zM54 13a.99.99 0 0 1 1 1v3H25.24a1.024 1.024 0 0 1-.9-.56L22.62 13zm3 39a1.025 1.025 0 0 1-1 1H8a.99.99 0 0 1-1-1V12a1.025 1.025 0 0 1 1-1h10.76a1.024 1.024 0 0 1 .9.56l.72 1.44 2.18 4.34A2.977 2.977 0 0 0 25.24 19H56a1.025 1.025 0 0 1 1 1z"/></svg>