<?xml version="1.0" encoding="UTF-8"?><svg id="Layer_1" xmlns="http://www.w3.org/2000/svg" viewBox="0 0 64 64"><defs><style>.cls-1{fill:#fff;}.cls-2{fill:#d9d9d9;}.cls-2,.cls-3,.cls-4{fill-rule:evenodd;}.cls-3{fill:#f0c45f;}.cls-4{fill:#fae6b8;}</style></defs><path class="cls-3" d="M54,14v4H23.24c-.76,0-1.46-.42-1.8-1.1-.62-1.28-1.66-3.36-2.42-4.9H52c1.1,0,2,.9,2,2Z"/><path class="cls-4" d="M54,18H23.24c-.76,0-1.46-.42-1.8-1.1-.76-1.54-2.12-4.26-2.88-5.8-.34-.68-1.04-1.1-1.8-1.1H6c-.54,0-1.04,.22-1.42,.58-.36,.38-.58,.88-.58,1.42V48c0,.54,.22,1.04,.58,1.42,.38,.36,.88,.58,1.42,.58h31.68c-1-1.28-1.76-2.74-2.24-4.34l2.48-2.12c-.16-1.02-.16-2.06,0-3.08l-2.48-2.12c.6-2,1.64-3.8,3.06-5.3l3.08,1.06c.8-.64,1.7-1.16,2.68-1.54l.6-3.2c2-.48,4.1-.48,6.12,0l.6,3.2c.96,.38,1.88,.9,2.68,1.54l1.74-.6v-13.5c0-1.1-.9-2-2-2Z"/><circle class="cls-1" cx="48" cy="42" r="5"/><path class="cls-2" d="M57.92,40.46l2.48-2.12c-.6-2-1.64-3.8-3.06-5.3l-3.08,1.06c-.8-.64-1.72-1.16-2.68-1.54l-.6-3.2c-2.02-.48-4.12-.48-6.12,0l-.6,3.2c-.98,.38-1.88,.9-2.68,1.54l-3.08-1.06c-1.42,1.5-2.46,3.3-3.06,5.3l2.48,2.12c-.16,1.02-.16,2.06,0,3.08l-2.48,2.12c.6,2,1.64,3.8,3.06,5.3l3.08-1.06c.8,.64,1.7,1.16,2.68,1.54l.6,3.2c2,.48,4.1,.48,6.12,0l.6-3.2c.96-.38,1.88-.9,2.68-1.54l3.08,1.06c1.42-1.5,2.46-3.3,3.06-5.3l-2.48-2.12c.16-1.02,.16-2.06,0-3.08Zm-9.92,6.54c-2.76,0-5-2.24-5-5s2.24-5,5-5,5,2.24,5,5-2.24,5-5,5Z"/><path d="M56.12,17.88c-.32-.32-.7-.56-1.12-.7v-3.18c0-1.66-1.34-3-3-3H19.62l-.18-.34c-.5-1.02-1.54-1.66-2.68-1.66H6c-.8,0-1.56,.32-2.12,.88-.56,.56-.88,1.32-.88,2.12V48c0,.8,.32,1.56,.88,2.12s1.32,.88,2.12,.88h26.92c.56,0,1-.44,1-1s-.44-1-1-1H6c-.26,0-.52-.1-.7-.3-.2-.18-.3-.44-.3-.7V12c0-.26,.1-.52,.3-.7,.18-.2,.44-.3,.7-.3h10.76c.38,0,.72,.22,.9,.56l2.9,5.78c.5,1.02,1.54,1.66,2.68,1.66h30.76c.26,0,.52,.1,.7,.3,.2,.18,.3,.44,.3,.7v9.26c0,.56,.44,1,1,1s1-.44,1-1v-9.26c0-.8-.32-1.56-.88-2.12Zm-3.12-.88H23.24c-.38,0-.72-.22-.9-.56l-1.72-3.44h31.38c.56,0,1,.44,1,1v3Zm-5,39c-1.11,0-2.22-.13-3.3-.39-.38-.09-.68-.4-.75-.79l-.5-2.66c-.7-.31-1.36-.69-1.98-1.14l-2.56,.9c-.38,.13-.79,.03-1.06-.25-1.53-1.61-2.67-3.58-3.3-5.71-.11-.38,0-.78,.31-1.04l2.06-1.77c-.08-.76-.08-1.52,0-2.28l-2.06-1.77c-.3-.26-.42-.66-.31-1.04,.62-2.13,1.76-4.1,3.3-5.71,.27-.28,.68-.39,1.06-.25l2.56,.9c.62-.45,1.29-.83,1.98-1.14l.5-2.66c.07-.39,.37-.7,.75-.79,2.16-.52,4.44-.52,6.59,0,.38,.09,.68,.4,.75,.79l.5,2.66c.7,.31,1.36,.69,1.98,1.14l2.56-.9c.37-.14,.78-.03,1.06,.25,1.53,1.61,2.67,3.58,3.3,5.71,.11,.38,0,.78-.31,1.04l-2.06,1.77c.08,.76,.08,1.52,0,2.28l2.06,1.77c.3,.26,.42,.66,.31,1.04-.63,2.13-1.77,4.11-3.3,5.71-.28,.29-.68,.39-1.06,.25l-2.56-.9c-.62,.45-1.28,.83-1.98,1.14l-.5,2.66c-.07,.39-.37,.7-.75,.79-1.08,.26-2.19,.39-3.3,.39Zm-2.2-2.2c1.45,.27,2.95,.27,4.41,0l.48-2.54c.06-.34,.3-.63,.62-.75,.87-.34,1.69-.81,2.42-1.4,.27-.22,.63-.28,.96-.16l2.44,.86c.96-1.12,1.71-2.42,2.2-3.82l-1.96-1.68c-.26-.22-.39-.57-.34-.91,.14-.93,.14-1.87,0-2.79-.05-.34,.07-.69,.34-.91l1.96-1.68c-.49-1.39-1.24-2.69-2.2-3.82l-2.44,.86c-.33,.12-.69,.05-.96-.16-.73-.59-1.55-1.06-2.42-1.4-.32-.12-.56-.41-.62-.75l-.48-2.54c-1.46-.27-2.95-.27-4.41,0l-.48,2.54c-.06,.34-.3,.63-.62,.75-.87,.34-1.69,.8-2.42,1.39-.27,.21-.63,.28-.96,.16l-2.44-.86c-.96,1.12-1.71,2.42-2.2,3.81l1.96,1.69c.26,.22,.39,.57,.34,.91-.14,.93-.14,1.87,0,2.79,.05,.34-.07,.69-.34,.91l-1.96,1.69c.49,1.39,1.24,2.69,2.2,3.81l2.44-.86c.33-.12,.69-.05,.96,.16,.74,.59,1.55,1.06,2.42,1.39,.32,.13,.56,.41,.62,.75l.48,2.54Zm2.2-5.8c-3.31,0-6-2.69-6-6s2.69-6,6-6,6,2.69,6,6-2.69,6-6,6Zm0-10c-2.21,0-4,1.79-4,4s1.79,4,4,4,4-1.79,4-4-1.79-4-4-4Z"/></svg>